<?xml version="1.0" standalone="no"?>
<!DOCTYPE svg PUBLIC "-//W3C//DTD SVG 20010904//EN"
 "http://www.w3.org/TR/2001/REC-SVG-20010904/DTD/svg10.dtd">
<svg version="1.0" xmlns="http://www.w3.org/2000/svg"
 width="512.000000pt" height="512.000000pt" viewBox="0 0 512.000000 512.000000"
 preserveAspectRatio="xMidYMid meet">

<g transform="translate(0.000000,512.000000) scale(0.100000,-0.100000)"
fill="#000000" stroke="none">
<path d="M2077 4944 c-343 -62 -638 -353 -698 -690 -10 -52 -21 -78 -44 -106
-44 -53 -55 -98 -55 -230 0 -128 9 -166 51 -220 26 -33 29 -44 29 -110 0 -118
-23 -200 -92 -337 -59 -117 -63 -128 -63 -195 0 -39 3 -83 8 -98 7 -25 4 -29
-40 -52 -113 -57 -254 -182 -338 -301 -95 -132 -111 -174 -335 -880 -122 -381
-132 -436 -107 -542 l14 -63 -123 0 -124 0 0 -80 0 -80 171 0 172 0 44 -41
c51 -47 145 -94 219 -109 33 -7 179 -10 405 -8 l354 3 54 28 53 28 22 -20 c11
-11 32 -24 45 -29 23 -8 24 -13 22 -83 -3 -96 23 -168 89 -251 61 -74 74 -113
67 -191 -6 -68 5 -100 40 -116 16 -8 179 -11 524 -11 l500 0 24 24 c44 44 47
189 6 282 -12 27 -40 70 -62 96 -22 26 -46 63 -54 82 -15 36 -20 112 -9 140 6
14 88 16 835 16 678 0 836 2 862 14 43 17 85 68 93 111 l6 35 159 0 159 0 0
80 0 80 -159 0 -159 0 -4 108 c-3 102 -5 111 -32 146 -35 47 -79 66 -151 66
l-55 0 0 199 0 199 109 4 c118 3 141 12 185 72 20 26 21 40 21 285 l0 258 -29
37 c-41 55 -77 66 -208 66 l-113 0 -24 45 c-33 62 -100 121 -179 158 -62 29
-77 32 -194 35 l-128 4 0 32 c0 84 -65 179 -130 193 l-30 6 0 87 0 88 30 5
c42 9 107 77 121 129 23 89 -12 182 -88 229 -37 24 -42 24 -298 24 -223 0
-265 -2 -292 -17 l-33 -16 0 49 c0 40 6 58 29 87 42 54 51 92 51 220 0 133
-11 178 -55 230 -22 25 -34 52 -40 87 -22 153 -114 331 -235 455 -208 215
-498 307 -793 254z m243 -549 c15 -14 33 -45 39 -68 39 -133 151 -229 284
-244 67 -7 77 -16 77 -70 0 -55 33 -93 80 -93 36 0 80 38 80 69 0 87 114 121
149 45 14 -32 14 -196 0 -227 -14 -32 -49 -47 -104 -47 l-45 0 0 40 0 40 -80
0 -80 0 0 -62 c0 -142 -48 -258 -146 -355 -187 -188 -481 -188 -668 0 -98 97
-146 213 -146 355 l0 62 -80 0 -80 0 0 -40 0 -40 -45 0 c-55 0 -90 15 -104 47
-14 31 -14 195 0 227 35 76 149 42 149 -45 0 -31 44 -69 80 -69 47 0 80 38 80
93 0 54 10 63 77 70 132 15 242 109 283 242 14 44 44 82 75 96 34 15 95 3 125
-26z m1331 -965 c10 -6 19 -19 19 -30 0 -11 -9 -24 -19 -30 -21 -11 -379 -14
-418 -4 -29 8 -33 60 -5 67 36 10 404 7 423 -3z m-1263 -346 c16 -22 55 -63
86 -91 l57 -51 -38 -37 c-21 -21 -67 -52 -103 -69 -57 -27 -76 -31 -150 -31
-74 0 -93 4 -150 31 -36 17 -82 48 -103 69 l-38 37 65 59 c36 33 74 74 85 92
l20 32 120 -1 121 -1 28 -39z m-584 -216 c9 -13 41 -48 72 -79 l56 -57 -46
-42 c-54 -50 -88 -105 -110 -179 -13 -44 -16 -104 -16 -310 0 -285 4 -303 70
-369 40 -41 76 -60 129 -68 l41 -7 0 -118 0 -119 -106 0 c-58 0 -114 -5 -126
-11 -11 -6 -26 -26 -34 -45 -8 -19 -21 -34 -28 -34 -8 0 -27 -11 -43 -24 l-29
-25 -55 27 c-48 24 -68 27 -176 31 l-123 3 0 279 0 279 -80 0 -80 0 0 -65 c0
-36 -3 -65 -6 -65 -7 0 -358 101 -362 104 -7 8 116 362 148 426 83 166 225
305 395 387 115 55 221 82 365 92 63 4 118 9 122 10 4 0 14 -9 22 -21z m1174
-8 c55 -11 62 -15 62 -36 l0 -24 -210 0 -211 0 36 43 35 42 113 -7 c62 -3 141
-12 175 -18z m673 10 c10 -6 19 -19 19 -30 0 -11 -9 -24 -19 -30 -21 -11 -379
-14 -418 -4 -29 8 -33 60 -5 67 36 10 404 7 423 -3z m449 -254 c49 -26 88 -64
113 -111 22 -39 22 -49 25 -552 l3 -513 -401 0 -400 0 0 335 0 336 -25 24 -24
25 -440 0 -440 0 20 57 c10 31 19 62 19 69 0 11 -107 54 -136 54 -7 0 -39 -80
-74 -187 -79 -240 -72 -233 -230 -233 -67 0 -130 5 -144 11 -43 20 -48 49 -44
300 3 205 5 238 22 269 35 66 87 110 156 131 14 4 462 7 995 6 925 -2 972 -3
1005 -21z m460 -416 l0 -200 -80 0 -80 0 0 200 0 200 80 0 80 0 0 -200z
m-1280 -480 l0 -280 -215 0 c-187 0 -215 2 -215 15 0 9 -11 27 -25 40 l-24 25
-321 0 -320 0 0 120 0 120 48 0 c100 0 195 73 228 175 9 27 19 53 21 58 2 4
188 7 414 7 l409 0 0 -280z m-2375 40 c99 -28 188 -53 198 -56 15 -5 17 -20
17 -135 l0 -129 -200 0 -200 0 0 -80 0 -79 388 -3 387 -3 34 -24 c72 -52 89
-158 36 -227 -47 -62 -72 -65 -445 -62 -327 3 -336 4 -387 27 -63 28 -136 103
-165 169 -40 89 -32 156 50 412 40 124 75 231 77 237 2 7 10 11 17 8 7 -2 94
-27 193 -55z m1176 -422 c6 -13 30 -45 52 -72 86 -104 87 -187 2 -287 -137
-161 -137 -357 0 -518 37 -43 65 -100 65 -133 0 -5 -33 -8 -73 -8 l-73 0 -11
58 c-15 77 -44 138 -98 201 -86 101 -85 180 6 291 70 86 93 149 93 250 1 72
-4 94 -27 145 -15 33 -35 67 -44 77 -15 17 -13 18 40 18 48 0 58 -3 68 -22z
m640 0 c6 -13 30 -45 52 -72 86 -104 87 -187 2 -287 -137 -161 -137 -357 0
-518 37 -43 65 -100 65 -133 0 -5 -105 -8 -233 -8 l-233 0 -11 58 c-15 77 -44
138 -98 201 -86 101 -85 180 6 291 70 86 93 149 93 250 1 72 -4 94 -27 145
-15 33 -35 67 -44 77 -15 17 -6 18 200 18 214 0 216 0 228 -22z m-876 -106
c26 -38 30 -52 30 -112 0 -60 -4 -74 -30 -112 -21 -30 -39 -44 -58 -46 l-27
-3 0 161 0 161 27 -3 c19 -2 37 -16 58 -46z m2635 -112 l0 -160 -755 0 c-415
0 -755 1 -755 3 0 1 7 20 15 42 8 22 14 74 14 115 0 41 -6 93 -14 115 -8 22
-15 41 -15 43 0 1 340 2 755 2 l755 0 0 -160z"/>
<path d="M1945 3975 c-50 -49 -15 -135 55 -135 41 0 80 39 80 80 0 41 -39 80
-80 80 -19 0 -40 -9 -55 -25z"/>
<path d="M2425 3975 c-50 -49 -15 -135 55 -135 41 0 80 39 80 80 0 41 -39 80
-80 80 -19 0 -40 -9 -55 -25z"/>
<path d="M3757 2306 c-90 -33 -157 -130 -157 -225 0 -68 20 -114 74 -167 73
-73 151 -92 249 -58 60 20 131 96 147 155 14 52 8 135 -13 175 -20 38 -73 92
-111 111 -42 22 -142 27 -189 9z m117 -157 c58 -27 55 -115 -5 -139 -63 -26
-125 36 -100 99 19 44 60 60 105 40z"/>
</g>
</svg>
